<svg width="32" height="32" viewBox="0 0 32 32" fill="none" xmlns="http://www.w3.org/2000/svg">
<path d="M9.23165 13.5204L7.58312 15.3423C7.88663 11.9168 10.0907 8.96209 13.3444 7.78075C14.2916 7.43675 15.2785 7.2624 16.2776 7.2624C18.7144 7.2624 21.0599 8.31795 22.712 10.1584L22.9831 10.4604L24.6971 8.85671L24.426 8.55471C22.3347 6.22502 19.3655 4.88889 16.2792 4.88889C15.0137 4.88889 13.764 5.10946 12.5656 5.54466C8.47334 7.03066 5.64978 10.8016 5.26236 15.1373L3.79952 13.5204L2.31329 14.9056L6.51534 19.5501L10.717 14.906L9.23165 13.5204Z" fill="#3F3F3F"/>
<path d="M29.7779 17.0432L25.5758 12.3987L21.3742 17.0428L22.8595 18.4284L24.501 16.6144C24.2125 20.0584 22.0028 23.0331 18.7353 24.2196C17.7884 24.5632 16.8019 24.7376 15.8021 24.7376C13.3653 24.7376 11.0197 23.682 9.36764 21.8417L9.09653 21.5397L7.38253 23.1432L7.65364 23.4452C9.74453 25.7748 12.7141 27.1111 15.8005 27.1111C17.0663 27.1111 18.3156 26.8903 19.5141 26.4556C23.6243 24.9634 26.456 21.1656 26.8235 16.8057L28.2916 18.4284L29.7779 17.0432Z" fill="#3F3F3F"/>
<path d="M9.23165 13.5204L7.58312 15.3423C7.88663 11.9168 10.0907 8.96209 13.3444 7.78075C14.2916 7.43675 15.2785 7.2624 16.2776 7.2624C18.7144 7.2624 21.0599 8.31795 22.712 10.1584L22.9831 10.4604L24.6971 8.85671L24.426 8.55471C22.3347 6.22502 19.3655 4.88889 16.2792 4.88889C15.0137 4.88889 13.764 5.10946 12.5656 5.54466C8.47334 7.03066 5.64978 10.8016 5.26236 15.1373L3.79952 13.5204L2.31329 14.9056L6.51534 19.5501L10.717 14.906L9.23165 13.5204Z" stroke="black" stroke-width="2" stroke-miterlimit="10" stroke-linecap="round" stroke-linejoin="round"/>
<path d="M29.7779 17.0432L25.5758 12.3987L21.3742 17.0428L22.8595 18.4284L24.501 16.6144C24.2125 20.0584 22.0028 23.0331 18.7353 24.2196C17.7884 24.5632 16.8019 24.7376 15.8021 24.7376C13.3653 24.7376 11.0197 23.682 9.36764 21.8417L9.09653 21.5397L7.38253 23.1432L7.65364 23.4452C9.74453 25.7748 12.7141 27.1111 15.8005 27.1111C17.0663 27.1111 18.3156 26.8903 19.5141 26.4556C23.6244 24.9634 26.456 21.1656 26.8235 16.8057L28.2916 18.4284L29.7779 17.0432Z" stroke="black" stroke-width="2" stroke-miterlimit="10" stroke-linecap="round" stroke-linejoin="round"/>
</svg>
