<svg width="32" height="32" viewBox="0 0 32 32" fill="none" xmlns="http://www.w3.org/2000/svg">
<g clip-path="url(#clip0)">
<path d="M7.1644 21.384C5.76066 22.79 5.09693 24.744 5.39995 26.5787C7.23462 26.8792 9.18764 26.2144 10.5924 24.8111C11.9961 23.4052 12.6599 21.4511 12.3568 19.6164C10.5222 19.3159 8.56915 19.9807 7.1644 21.384Z" fill="#FCEA2B"/>
<path d="M14.2102 20.3729C14.1249 20.8022 13.9143 21.1967 13.605 21.5065C13.4544 21.6564 13.283 21.7839 13.096 21.885C14.0572 23.2057 14.7662 24.6782 15.1828 26.2186C15.498 25.9424 15.8008 25.6504 16.0902 25.3437C16.9407 24.4396 17.6676 23.4159 18.2465 22.307C18.8023 21.2314 19.2132 20.0883 19.4661 18.9135C17.809 19.7821 16.0119 20.2811 14.2101 20.3729L14.2102 20.3729Z" fill="#61B2E4"/>
<path d="M6.63233 15.8884C6.32566 16.1773 6.03357 16.4797 5.75717 16.7944C7.29859 17.2083 8.77255 17.9148 10.0951 18.8736C10.1957 18.6896 10.322 18.5208 10.47 18.3723C10.7789 18.064 11.1718 17.8538 11.5997 17.7679C11.6933 15.9676 12.1936 14.1724 13.0632 12.5172C13.0641 12.5156 13.0649 12.514 13.0657 12.5123C11.8901 12.765 10.7462 13.1757 9.66993 13.7316C8.56059 14.3107 7.53664 15.0377 6.63233 15.8884Z" fill="#92D3F5"/>
<path d="M15.476 9.22089C13.151 11.5545 11.7576 14.6269 11.5992 17.7689C12.3271 17.6214 13.0804 17.848 13.6059 18.3726C14.133 18.9001 14.3595 19.6572 14.2086 20.3874C17.3532 20.227 20.4272 18.8308 22.7606 16.503C25.7436 13.5151 27.1536 9.36214 26.5089 5.46347C25.7392 5.33782 24.9514 5.29107 24.1571 5.32387C20.9686 5.45391 17.8417 6.85756 15.4762 9.22063L15.476 9.22089ZM20.0312 8.98574C20.8495 8.16738 22.1764 8.16716 22.995 8.9852C22.9952 8.98538 22.9954 8.98556 22.9956 8.98574C23.8141 9.80382 23.8144 11.1304 22.9961 11.9487C22.9959 11.9489 22.9957 11.9491 22.9956 11.9492C22.1769 12.7672 20.85 12.7669 20.0318 11.9486C19.2132 11.1306 19.2129 9.80409 20.0312 8.98574Z" fill="#EA5A47"/>
<path d="M11.7945 23.1276C11.4054 23.5645 10.9548 23.9483 10.458 24.2661C8.90658 25.254 7.02494 25.5259 5.37312 25.0008C5.30667 25.5325 5.31565 26.0637 5.39978 26.5784C7.23445 26.8789 9.18747 26.2141 10.5922 24.8109C11.0833 24.3161 11.4904 23.7461 11.7947 23.1276H11.7945Z" fill="#F1B31C"/>
<path d="M11.6462 17.1942C11.6315 17.3845 11.6213 17.5746 11.6158 17.7645C12.3389 17.624 13.0846 17.8519 13.6057 18.3725C14.1328 18.9 14.3593 19.6571 14.2083 20.3873C17.3528 20.2265 20.4264 18.8301 22.7594 16.5023C23.4231 15.8327 24.0157 15.097 24.5259 14.3095C23.9272 14.8547 23.2792 15.347 22.5913 15.7794C19.2324 17.8732 15.1718 18.398 11.6459 17.1942L11.6462 17.1942Z" fill="#D22F27"/>
<path d="M10.6839 21.5782C11.0707 21.3839 11.4486 21.1703 11.8173 20.9391C12.9032 20.2581 13.8962 19.426 14.7637 18.4702L14.765 18.4689C15.6006 17.5395 16.3092 16.505 16.8685 15.3968C16.8956 15.3433 16.9114 15.2848 16.915 15.225C15.4046 14.8902 10.3168 19.781 10.6839 21.5782Z" fill="#61B2E4"/>
<path d="M21.5134 13.1067C20.0574 13.1067 18.873 11.9226 18.873 10.467C18.873 9.01144 20.0574 7.82739 21.5134 7.82739C22.9694 7.82739 24.1538 9.01144 24.1538 10.467C24.1538 11.9226 22.9694 13.1067 21.5134 13.1067ZM21.5134 8.70726C20.5428 8.70726 19.7531 9.49646 19.7531 10.467C19.7531 11.4376 20.5428 12.2268 21.5134 12.2268C22.484 12.2268 23.2737 11.4376 23.2737 10.467C23.2737 9.49646 22.484 8.70726 21.5134 8.70726Z" fill="black"/>
<path d="M9.17919 20.028C8.43342 20.3428 7.74711 20.8047 7.16448 21.3839C5.76088 22.7897 5.09706 24.7437 5.39991 26.5781C7.23457 26.8787 9.18751 26.2139 10.5923 24.8106C11.172 24.2282 11.6344 23.5421 11.9495 22.7965" stroke="black" stroke-width="2" stroke-miterlimit="10" stroke-linecap="round" stroke-linejoin="round"/>
<path d="M6.6326 15.8884C6.32594 16.1773 6.03385 16.4797 5.75745 16.7944C7.29887 17.2083 8.77282 17.9148 10.0954 18.8736C10.196 18.6896 10.3222 18.5208 10.4703 18.3723C10.7791 18.064 11.1721 17.8538 11.5999 17.7679C11.6935 15.9676 12.1939 14.1724 13.0635 12.5172C13.0643 12.5156 13.0651 12.514 13.066 12.5123C11.8904 12.765 10.7465 13.1757 9.6702 13.7316C8.56087 14.3107 7.53691 15.0377 6.6326 15.8884Z" stroke="black" stroke-width="2" stroke-miterlimit="10" stroke-linecap="round" stroke-linejoin="round"/>
<path d="M14.2104 20.3729C14.1251 20.8023 13.9146 21.1967 13.6053 21.5066C13.4546 21.6565 13.2832 21.7839 13.0963 21.8851C14.0574 23.2058 14.7665 24.6783 15.183 26.2187C15.4982 25.9424 15.8011 25.6504 16.0905 25.3438C16.9409 24.4396 17.6678 23.4159 18.2467 22.3071C18.8026 21.2315 19.2134 20.0883 19.4664 18.9135C17.8093 19.7822 16.0122 20.2811 14.2104 20.373L14.2104 20.3729Z" stroke="black" stroke-width="2" stroke-miterlimit="10" stroke-linecap="round" stroke-linejoin="round"/>
<path d="M14.1469 19.2645C14.2667 19.6584 14.2582 20.0164 14.2078 20.3865C17.3526 20.226 20.4269 18.8295 22.7602 16.5015C25.7427 13.5141 27.1529 9.36237 26.5092 5.46415C22.6109 4.8257 18.4612 6.23837 15.4767 9.22006C13.1513 11.5538 11.7577 14.6263 11.5993 17.7685C12.0177 17.6837 12.443 17.7266 12.8301 17.8746" stroke="black" stroke-width="2" stroke-miterlimit="10" stroke-linecap="round" stroke-linejoin="round"/>
<path d="M16.4767 15.1982H16.4766C15.403 15.7397 14.3999 16.4261 13.499 17.2358C12.5723 18.0762 11.7656 19.0382 11.1059 20.0896C10.8819 20.4465 10.6755 20.8128 10.4874 21.1871" stroke="black" stroke-width="2" stroke-miterlimit="10" stroke-linecap="round" stroke-linejoin="round"/>
</g>
<defs>
<clipPath id="clip0">
<rect width="32" height="32" fill="white"/>
</clipPath>
</defs>
</svg>
