<svg width="32" height="32" viewBox="0 0 32 32" fill="none" xmlns="http://www.w3.org/2000/svg">
<path d="M16 26.7556C21.891 26.7556 26.6667 21.9799 26.6667 16.0889C26.6667 10.1979 21.891 5.42224 16 5.42224C10.109 5.42224 5.33334 10.1979 5.33334 16.0889C5.33334 21.9799 10.109 26.7556 16 26.7556Z" fill="#FCEA2B"/>
<path d="M8.4889 27.6889C8.35556 27.1556 8.31112 26.6222 8.35556 26.0889C8.44445 25.6 9.37779 23.2 9.55556 22.8444C9.73334 22.4889 10.1778 20.8444 10.6222 20.7111C11.0667 20.5778 11.1556 20.7556 11.1111 21.0222C11.0667 21.2889 10.8445 24.4444 10.8445 24.4444L15.0222 23.2C15.0222 23.2 18.4445 22.3556 18.5333 22.7556C19.4667 23.6444 16.1333 24.7556 15.2 24.7111C15.2 24.7111 15.6889 24.9778 15.6 25.2889C15.5111 25.6 15.2445 25.8222 15.1556 25.8222C15.0667 25.8222 15.3778 26.0444 15.4222 26.4444C15.8222 27.2444 14.1778 27.4667 14.1778 27.4667C14.7556 27.3778 15.6445 28.4 14.2222 28.6667C13.7778 28.8 12.0889 29.2889 12.0889 29.2889C12.0889 29.2889 10.6222 29.8222 9.77779 29.2444C9.24445 28.8889 8.75556 28.3556 8.4889 27.6889Z" fill="#FCEA2B"/>
<path d="M12.8444 19.7778C13.9111 19.4667 18.1333 20 19.1111 20.7111" stroke="black" stroke-width="2" stroke-linecap="round" stroke-linejoin="round"/>
<path d="M9.95554 9.99997C10.5333 9.59997 11.2 9.42219 11.9111 9.51108C12.6222 9.51108 13.2889 9.77775 13.7778 10.2666" stroke="black" stroke-width="2" stroke-linecap="round" stroke-linejoin="round"/>
<path d="M22.7111 11.7778C21.5111 11.4667 20.2667 11.4222 19.0667 11.6444" stroke="black" stroke-width="2" stroke-linecap="round" stroke-linejoin="round"/>
<path d="M18.6667 25.9556C24.1333 24.4889 27.3333 18.8889 25.8667 13.4222C24.4 7.95555 18.8 4.75555 13.3333 6.22222C8.88888 7.42222 5.77777 11.4667 5.77777 16.0889C5.77777 18.1333 6.39999 20.1778 7.55555 21.8667" stroke="black" stroke-width="2" stroke-linecap="round" stroke-linejoin="round"/>
<path d="M13.7778 13.6444C13.7778 14.4 13.2 14.9778 12.4444 14.9778C11.6889 14.9778 11.1111 14.4 11.1111 13.6444C11.1111 12.8889 11.6889 12.3111 12.4444 12.3111C13.2 12.3111 13.7778 12.8889 13.7778 13.6444Z" fill="black"/>
<path d="M21.3333 14.9778C21.3333 15.7334 20.7555 16.3111 20 16.3111C19.2444 16.3111 18.6667 15.7334 18.6667 14.9778C18.6667 14.2222 19.2444 13.6445 20 13.6445C20.7555 13.6445 21.3333 14.2222 21.3333 14.9778Z" fill="black"/>
<path d="M8.75556 25.2C8.31111 25.9111 8.22222 26.8444 8.53334 27.6444C9.02222 29.1111 10.3111 29.9556 11.7333 29.5111L13.9111 28.8889L14.3556 28.7556C14.7111 28.6667 14.9333 28.2667 14.8444 27.9556C14.7556 27.7333 14.5778 27.5556 14.3111 27.5111L14.8444 27.3778C15.2 27.2889 15.4222 26.8889 15.3333 26.5778C15.2444 26.3556 15.0667 26.1333 14.8 26.0889L15.3333 25.9111C15.6889 25.8222 15.9111 25.4222 15.8222 25.1111C15.7778 24.8889 15.6 24.7111 15.3778 24.6667L18.2222 23.8222C18.5778 23.7333 18.8 23.3333 18.7111 23.0222C18.6222 22.7111 18.2222 22.4444 17.9111 22.5333L13.3778 23.8667L11.1111 24.5333L11.3778 21.0667C11.4222 20.6667 10.7111 20.5333 10.4444 21.1556L8.75556 25.2Z" stroke="black" stroke-width="2" stroke-linecap="round" stroke-linejoin="round"/>
</svg>
