<svg width="32" height="32" viewBox="0 0 32 32" fill="none" xmlns="http://www.w3.org/2000/svg">
<path d="M17.0246 18.6804C16.9662 18.6804 16.9084 18.6689 16.8545 18.6466C16.8005 18.6242 16.7516 18.5915 16.7104 18.5501L7.06884 8.90862C6.82245 8.66216 6.68405 8.32792 6.6841 7.97942C6.68412 7.80687 6.71813 7.636 6.78419 7.47659C6.85024 7.31717 6.94705 7.17233 7.06908 7.05033C7.19112 6.92833 7.33598 6.83156 7.49542 6.76555C7.65485 6.69953 7.82572 6.66557 7.99828 6.66559C8.34678 6.66563 8.68098 6.80412 8.92737 7.05057L18.5689 16.692C18.6522 16.7754 18.699 16.8884 18.699 17.0063C18.699 17.1241 18.6522 17.2372 18.5689 17.3205C18.3953 17.4941 17.5125 18.3765 17.3389 18.5501C17.2977 18.5915 17.2487 18.6243 17.1947 18.6466C17.1408 18.669 17.083 18.6804 17.0246 18.6804Z" fill="#A57939"/>
<path d="M27.147 18.5514C26.9562 18.3702 26.7193 18.2451 26.4622 18.1896C26.2051 18.1342 25.9376 18.1506 25.6892 18.237C24.9333 17.5559 23.9953 17.1099 22.99 16.9534C21.9846 16.797 20.9554 16.9369 20.0283 17.3561L18.9661 16.2945C18.8827 16.2111 18.7697 16.1643 18.6518 16.1643C18.534 16.1643 18.4209 16.2111 18.3376 16.2945L16.3124 18.3192C16.2712 18.3605 16.2384 18.4095 16.2161 18.4634C16.1937 18.5173 16.1822 18.5751 16.1822 18.6334C16.1822 18.6918 16.1937 18.7496 16.2161 18.8035C16.2384 18.8574 16.2712 18.9064 16.3124 18.9477L17.3747 20.0099C16.9564 20.9352 16.8164 21.9623 16.9714 22.9658C17.1265 23.9694 17.5701 24.9062 18.2481 25.6622C18.1393 25.9609 18.1357 26.2878 18.2378 26.5889C18.3399 26.89 18.5417 27.1472 18.8098 27.3181C19.0779 27.4889 19.3963 27.5632 19.7123 27.5287C20.0284 27.4941 20.3232 27.3528 20.548 27.1281L27.147 20.5297C27.409 20.2672 27.5562 19.9115 27.5562 19.5405C27.5562 19.1696 27.409 18.8139 27.147 18.5514Z" fill="#D22F27"/>
<path d="M27.147 18.5514C26.8801 18.2977 26.526 18.1562 26.1578 18.1562C25.7896 18.1562 25.4355 18.2977 25.1686 18.5514L18.5697 25.15C18.3091 25.4127 18.1633 25.7679 18.164 26.1379C18.1648 26.5079 18.3121 26.8626 18.5737 27.1242C18.8354 27.3859 19.19 27.5332 19.56 27.534C19.9301 27.5347 20.2853 27.3888 20.548 27.1283L27.147 20.5297C27.409 20.2672 27.5562 19.9115 27.5562 19.5406C27.5562 19.1697 27.409 18.8139 27.147 18.5514Z" fill="#EA5A47"/>
<path d="M24.8889 19.4593L25.4827 18.8655C25.6621 18.6872 25.9047 18.5871 26.1577 18.5871C26.4106 18.5871 26.6533 18.6872 26.8327 18.8655V18.8655C27.011 19.0449 27.1111 19.2876 27.1111 19.5405C27.1111 19.7934 27.011 20.0361 26.8327 20.2155L20.234 26.8141C20.0546 26.9925 19.8119 27.0926 19.559 27.0926C19.3061 27.0926 19.0634 26.9925 18.884 26.8141V26.8141C18.7057 26.6348 18.6056 26.3921 18.6056 26.1392C18.6056 25.8862 18.7057 25.6436 18.884 25.4642L19.4593 24.8889L24.8889 19.4593Z" stroke="black" stroke-width="2" stroke-linecap="round" stroke-linejoin="round"/>
<path d="M16 17.2114L7.38327 8.59465C7.22082 8.43122 7.12964 8.21015 7.12964 7.97971C7.12964 7.74928 7.22082 7.52821 7.38327 7.36478V7.36478C7.5467 7.20233 7.76777 7.11115 7.99821 7.11115C8.22864 7.11115 8.44971 7.20233 8.61314 7.36478L17.2299 15.9815" stroke="black" stroke-width="2" stroke-linecap="round" stroke-linejoin="round"/>
<path d="M24.6368 18.0106C23.9282 17.5931 23.1247 17.3633 22.3025 17.343C21.4803 17.3227 20.6665 17.5125 19.9381 17.8946L18.6522 16.6086L16.6271 18.6337L17.9131 19.9196C17.5325 20.6451 17.3427 21.4553 17.3612 22.2743C17.3798 23.0933 17.6063 23.8941 18.0193 24.6015" stroke="black" stroke-width="2" stroke-linecap="round" stroke-linejoin="round"/>
</svg>
